<svg width="120" height="45" viewBox="0 0 120 45" fill="none" xmlns="http://www.w3.org/2000/svg">
  <path d="M116.666 29.8815C118.507 29.8815 120 28.4319 120 26.6438C120 24.8557 118.507 23.4062 116.666 23.4062C114.825 23.4062 113.333 24.8557 113.333 26.6438C113.333 28.4319 114.825 29.8815 116.666 29.8815Z"
        fill="#1DBF73"/>
  <path d="M13.3643 44.8366V36.0742H18.823V37.3811H14.9698V39.8613H18.2572V41.1683H14.9698V44.8218H13.3643V44.8366ZM22.141 44.8366V36.0742H25.1991C25.6731 36.0742 26.1013 36.1187 26.5141 36.2079C26.927 36.297 27.2633 36.4455 27.5692 36.6386C27.8597 36.8465 28.1043 37.099 28.2725 37.4405C28.4407 37.7673 28.5325 38.1831 28.5325 38.6732C28.5325 39.3415 28.3643 39.891 28.0432 40.292C27.7221 40.7079 27.2786 41.0049 26.7282 41.1831L28.8841 44.8366H27.0799L25.1227 41.4059H23.7465V44.8366H22.141ZM23.7465 40.1732H25.0309C25.6425 40.1732 26.1166 40.0544 26.4529 39.8019C26.774 39.5495 26.9422 39.1782 26.9422 38.6732C26.9422 38.1683 26.774 37.8118 26.4529 37.6188C26.1318 37.4257 25.6578 37.3217 25.0309 37.3217H23.7465V40.1732ZM35.5661 45C34.9698 45 34.4346 44.896 33.9453 44.6881C33.456 44.4802 33.0432 44.1683 32.6915 43.7822C32.3398 43.3812 32.0646 42.9059 31.8811 42.3416C31.6823 41.7772 31.5906 41.1386 31.5906 40.4257C31.5906 39.7128 31.6823 39.0891 31.8811 38.5247C32.0799 37.9603 32.3398 37.4999 32.6915 37.1138C33.0432 36.7277 33.456 36.4306 33.9453 36.2227C34.4346 36.0148 34.9698 35.9108 35.5661 35.9108C36.1624 35.9108 36.6976 36.0148 37.1869 36.2227C37.6762 36.4306 38.1043 36.7277 38.456 37.1138C38.8077 37.4999 39.0829 37.9752 39.2817 38.5247C39.4805 39.0891 39.5722 39.7128 39.5722 40.4257C39.5722 41.1386 39.4805 41.7772 39.2817 42.3416C39.0829 42.9059 38.8077 43.3812 38.456 43.7822C38.1043 44.1831 37.6762 44.4802 37.1869 44.6881C36.6976 44.896 36.1471 45 35.5661 45ZM35.5661 43.6485C35.9331 43.6485 36.2542 43.5742 36.5294 43.4257C36.8199 43.2772 37.0646 43.0544 37.2633 42.7722C37.4621 42.4901 37.6303 42.1485 37.7374 41.7475C37.8444 41.3465 37.9055 40.901 37.9055 40.4109C37.9055 39.4306 37.6915 38.6584 37.2786 38.094C36.8658 37.5296 36.2848 37.2623 35.5661 37.2623C34.8474 37.2623 34.2817 37.5445 33.8536 38.094C33.4407 38.6584 33.2266 39.4306 33.2266 40.4109C33.2266 40.901 33.2878 41.3465 33.3948 41.7475C33.5019 42.1485 33.6548 42.4901 33.8688 42.7722C34.0676 43.0544 34.3123 43.2772 34.6028 43.4257C34.878 43.5742 35.1991 43.6485 35.5661 43.6485ZM43.089 44.8366V36.0742H44.9086L46.5141 40.3663C46.6211 40.6485 46.7129 40.9307 46.8046 41.2128C46.8964 41.5099 46.9881 41.792 47.0951 42.0742H47.1563C47.2633 41.792 47.3551 41.495 47.4468 41.2128C47.5386 40.9158 47.6303 40.6336 47.7374 40.3663L49.297 36.0742H51.1166V44.8366H49.6334V40.8267C49.6334 40.6188 49.6334 40.396 49.6487 40.1584C49.664 39.9207 49.6792 39.6683 49.6945 39.4306C49.7098 39.1782 49.7404 38.9405 49.771 38.7029C49.8016 38.4653 49.8169 38.2425 49.8474 38.0346H49.7863L49.0523 40.0693L47.5692 44.0049H46.6211L45.1227 40.0693L44.404 38.0346H44.3429C44.3581 38.2425 44.3887 38.4653 44.404 38.7029C44.4346 38.9405 44.4499 39.1782 44.4805 39.4306C44.5111 39.6831 44.5263 39.9207 44.5416 40.1584C44.5569 40.396 44.5569 40.6188 44.5569 40.8267V44.8366H43.089ZM59.6028 44.8366V36.0742H65.0615V37.3811H61.2083V39.8613H64.4958V41.1683H61.2083V44.8218H59.6028V44.8366ZM68.3643 44.8366V36.0742H69.9698V44.8366H68.3643ZM75.612 44.8366L72.7832 36.0742H74.4805L75.7496 40.4851C75.9025 40.9901 76.0248 41.4653 76.1471 41.9109C76.2695 42.3564 76.3918 42.8317 76.56 43.3515H76.6212C76.7741 42.8465 76.9117 42.3713 77.034 41.9109C77.1563 41.4505 77.2786 40.9901 77.4163 40.4851L78.6701 36.0742H80.3215L77.508 44.8366H75.612ZM83.1196 44.8366V36.0742H88.5783V37.3811H84.7251V39.6237H87.982V40.9307H84.7251V43.5148H88.716V44.8218H83.1196V44.8366ZM92.2786 44.8366V36.0742H95.3367C95.8108 36.0742 96.2389 36.1187 96.6517 36.2079C97.0646 36.297 97.401 36.4455 97.7068 36.6386C97.9973 36.8465 98.2419 37.099 98.4101 37.4405C98.5783 37.7673 98.6701 38.1831 98.6701 38.6732C98.6701 39.3415 98.5019 39.891 98.1808 40.292C97.8597 40.7079 97.4163 41.0049 96.8658 41.1831L99.0218 44.8366H97.2175L95.2603 41.4059H93.8841V44.8366H92.2786ZM93.8841 40.1732H95.1686C95.7802 40.1732 96.2542 40.0544 96.5906 39.8019C96.9117 39.5495 97.0799 39.1782 97.0799 38.6732C97.0799 38.1683 96.9117 37.8118 96.5906 37.6188C96.2695 37.4257 95.7955 37.3217 95.1686 37.3217H93.8841V40.1732ZM102.187 44.8366V36.0742H105.245C105.719 36.0742 106.147 36.1187 106.56 36.2079C106.973 36.297 107.309 36.4455 107.615 36.6386C107.906 36.8465 108.15 37.099 108.318 37.4405C108.487 37.7673 108.578 38.1831 108.578 38.6732C108.578 39.3415 108.41 39.891 108.089 40.292C107.768 40.7079 107.325 41.0049 106.774 41.1831L108.93 44.8366H107.126L105.169 41.4059H103.777V44.8366H102.187ZM103.792 40.1732H105.077C105.688 40.1732 106.162 40.0544 106.499 39.8019C106.82 39.5495 106.988 39.1782 106.988 38.6732C106.988 38.1683 106.82 37.8118 106.499 37.6188C106.178 37.4257 105.704 37.3217 105.077 37.3217H103.792V40.1732Z"
        fill="#222325"/>
  <path d="M2.35474 5.1832H0V0H9.74006V21.3417C9.74006 23.3764 10.1223 24.0744 11.789 24.0744C12.263 24.0744 12.6911 24.0298 12.6911 24.0298V29.7031C12.6911 29.7031 11.6667 29.822 10.474 29.822C6.54434 29.822 2.37003 28.916 2.37003 21.7427V5.1832H2.35474Z"
        fill="#222325"/>
  <path d="M25.8717 7.78223C32.4467 7.78223 36.1164 12.1783 36.1164 18.1041C36.1164 18.8021 35.9482 20.2575 35.9482 20.2575H22.0032C22.5537 22.9902 24.7708 24.1932 27.1256 24.1932C30.3671 24.1932 33.3182 22.1585 33.3182 22.1585L36.0094 27.1338C36.0094 27.1338 32.462 30.119 26.5445 30.119C18.7005 30.119 14.465 24.6091 14.465 18.9358C14.4344 12.6832 18.7922 7.78223 25.8717 7.78223ZM28.4711 16.3219C28.4711 14.6288 27.3243 13.1733 25.7035 13.1733C23.5629 13.1733 22.5537 14.6585 22.1561 16.3219H28.4711Z"
        fill="#222325"/>
  <path d="M78.5475 7.91589C75.26 7.91589 72.4924 10.3218 71.5444 13.2179H71.4526C71.4526 13.2179 71.5444 12.8021 71.5444 12.1337V11.0199C71.5444 9.07431 70.4282 8.28718 68.4251 8.28718H61.4679V13.4704H63.5169C64.1132 13.4704 64.4496 13.7971 64.4496 14.3763V24.4457H59.2202C58.6239 24.4457 58.2875 24.1189 58.2875 23.5397V16.4852C58.2875 10.8862 54.8777 7.78223 48.471 7.78223C42.9205 7.78223 39.1744 10.5595 39.1744 10.5595L41.7279 15.4011C41.7279 15.4011 44.8013 13.3664 47.7829 13.3664C49.4496 13.3664 50.9022 13.9902 50.9022 15.7278V16.3516H49.5872C46.1774 16.3516 37.8594 17.2575 37.8594 23.5249C37.8594 27.8318 41.2233 30.119 45.0612 30.119C49.7554 30.119 51.5444 26.5992 51.5444 26.5992H51.6361C51.6361 26.5992 51.5444 26.8962 51.5444 27.2675V27.3863C51.5444 28.4259 52.3548 29.6289 54.4955 29.6289H75.0153V24.4457H71.8349V21.3417C71.8349 17.4506 73.7921 14.9258 77.89 14.9258C78.7921 14.9258 79.3884 15.0446 79.3884 15.0446V7.99015C79.4037 7.99015 78.9756 7.91589 78.5475 7.91589ZM51.0092 20.8813C51.0092 22.7526 49.1285 24.9358 47.2478 24.9358C46.0551 24.9358 45.2906 24.1487 45.2906 23.0348C45.2906 21.1338 47.89 20.3764 50.3211 20.3764H51.0092V20.8813Z"
        fill="#222325"/>
  <path d="M81.1623 24.4457H84.1898V14.3763C84.1898 13.7971 83.8534 13.4704 83.2571 13.4704H81.1776V8.28718H88.2112C90.2143 8.28718 91.2387 9.23768 91.2387 10.6931V11.3912C91.2387 11.5991 91.1928 11.8813 91.1928 11.8813H91.2846C91.2846 11.8813 93.2112 7.78223 98.7464 7.78223C102.89 7.78223 106.162 9.77234 106.162 15.7724V24.4308H108.93V29.614H98.7769V17.0942C98.7769 15.104 97.9665 14.2724 96.2999 14.2724C93.0124 14.2724 91.5598 17.5843 91.5598 20.5694V24.416H94.358V29.5992H81.147V24.4457H81.1623Z"
        fill="#222325"/>
</svg>