<svg xmlns="http://www.w3.org/2000/svg" width="350" height="50" viewBox="0 0 350 50"><g fill="#555"><path d="M19.2 12.1h12.6c2.1 0 3.8-1.7 3.8-3.8v-.2c0-2.1-1.7-3.8-3.8-3.8H30v-.5C30 1.7 28.3 0 26.2 0h-1.4C22.7 0 21 1.7 21 3.8v.4h-1.7c-2.1 0-3.8 1.7-3.8 3.8v.2c-.1 2.2 1.6 3.9 3.7 3.9zm-1.9-4c0-1 .8-1.9 1.9-1.9h2.7c.5 0 1-.4 1-1V3.8c0-1 .8-1.9 1.9-1.9h1.4c1 0 1.9.8 1.9 1.9v1.4c0 .5.4 1 1 1h2.7c1 0 1.9.8 1.9 1.9v.2c0 1-.8 1.9-1.9 1.9H19.2c-1 0-1.9-.8-1.9-1.9v-.2z"/><path d="M42 5.4h-4.5c-.5 0-1 .4-1 1 0 .5.4 1 1 1H41V47H9.9V7.3h3.5c.5 0 1-.4 1-1 0-.5-.4-1-1-1H9c-.5 0-1 .4-1 1V48c0 .5.4 1 1 1h33c.5 0 1-.4 1-1V6.3c0-.5-.4-.9-1-.9z"/><path d="M33.9 20.7l-12 14.8-4.2-4.7c-.4-.4-1-.4-1.4-.1-.4.4-.4 1-.1 1.4l4.9 5.5c.2.2.4.3.7.3.3 0 .5-.1.7-.4L35.4 22c.3-.4.3-1-.1-1.4-.5-.3-1.1-.3-1.4.1z"/></g><path fill="#555" d="M62.4 1.1H52c-.5 0-1 .4-1 1v10.6c0 .6.4 1 1 1h10.4c.5 0 1-.4 1-1V2.1c0-.6-.5-1-1-1zm-1 10.6H53V3.1h8.4v8.6zm1 6.6H52c-.5 0-1 .4-1 1v10.6c0 .6.4 1 1 1h10.4c.5 0 1-.4 1-1V19.3c0-.5-.5-1-1-1zm-1 10.6H53v-8.6h8.4v8.6zm1 6.6H52c-.5 0-1 .4-1 1v10.6c0 .6.4 1 1 1h10.4c.5 0 1-.4 1-1V36.5c0-.5-.5-1-1-1zm-1 10.6H53v-8.6h8.4v8.6zm18.3-45H69.3c-.5 0-1 .4-1 1v10.6c0 .6.4 1 1 1h10.4c.5 0 1-.4 1-1V2.1c0-.6-.5-1-1-1zm-1 10.6h-8.4V3.1h8.4v8.6zm1 6.6H69.3c-.5 0-1 .4-1 1v10.6c0 .6.4 1 1 1h10.4c.5 0 1-.4 1-1V19.3c0-.5-.5-1-1-1zm-1 10.6h-8.4v-8.6h8.4v8.6zm1 6.6H69.3c-.5 0-1 .4-1 1v10.6c0 .6.4 1 1 1h10.4c.5 0 1-.4 1-1V36.5c0-.5-.5-1-1-1zm-1 10.6h-8.4v-8.6h8.4v8.6zM97 1.1H86.6c-.5 0-1 .4-1 1v10.6c0 .6.4 1 1 1H97c.5 0 1-.4 1-1V2.1c0-.6-.4-1-1-1zm-1 10.6h-8.4V3.1H96v8.6zm1 6.6H86.6c-.5 0-1 .4-1 1v10.6c0 .6.4 1 1 1H97c.5 0 1-.4 1-1V19.3c0-.5-.4-1-1-1zm-1 10.6h-8.4v-8.6H96v8.6zm1 6.6H86.6c-.5 0-1 .4-1 1v10.6c0 .6.4 1 1 1H97c.5 0 1-.4 1-1V36.5c0-.5-.4-1-1-1zm-1 10.6h-8.4v-8.6H96v8.6z"/><g fill="#555"><path d="M124.5 0C111 0 100 11 100 24.5S111 49 124.5 49 149 38 149 24.5 138 0 124.5 0zm0 47C112.1 47 102 36.9 102 24.5S112.1 2 124.5 2 147 12.1 147 24.5 136.9 47 124.5 47z"/><path d="M143.5 16c-.5 0-1 .5-.9 1 0 .9-.9 2-2.8 3-2.8 1.5-2.4 2.6-1.3 5.7.8 2.4-3.6 9.7-5.6 11.2-.3-.5-.5-1.9-.5-3.1v-2.6c0-.1 0-.3-.4-3.3v-.1l-.7-2.6c0-.2-.1-.3-.2-.4l-2.1-2.4c-.1-.1-.2-.2-.4-.3-.2-.1-4.4-1.8-6.4-2.2-.1 0-.3-.1-.4-.6-.1-.8.4-2 1.3-2.4.5-.2.8-.2 1.2-.2.3 0 .9.1 1.4-.3.5-.5.5-1.3.4-3-.1-1.3-.6-2.3-1.3-2.9-1.2-1-2.8-.8-3.9-.6-.3 0-.6.1-.9.1-2.3 0-2.6 1.7-3.4 5.5l-.2.7v.2l-.3-.3c-.2-.4-.4-2.5-.5-4.3 0-.4-.3-.8-.8-.9-.4-.1-.9.1-1.1.5l-1.7 2.9c-.1.1-.1.1-.1.2 0 0-.3.8-2.4 1.5h-.5c-.3-.5.2-2.7 1.1-4.7.2-.5 0-1.1-.5-1.3s-1.1 0-1.3.5c-.7 1.6-2.1 5.3-.7 6.8.4.4 1.2.9 2.6.4 2.7-1 3.4-2.1 3.6-2.7v-.1c.1 1 .3 1.6.4 1.9.2.3 1.1 1.8 2.4 1.6.8-.1 1.3-.8 1.6-2l.2-.7c.8-3.7.9-3.9 1.5-3.9.3 0 .7 0 1.1-.1.9-.1 1.9-.2 2.4.2.3.3.5.8.6 1.5 0 .6.1 1 .1 1.2-.5 0-1.1 0-1.9.4-1.8.9-2.6 2.9-2.4 4.4.1 1.2.9 2.1 1.9 2.3 1.6.3 4.9 1.7 5.8 2l1.8 2 .6 2.3c.2 1.3.4 2.8.4 2.9v2.7c0 1.2.2 4.2 1.7 4.9.2.1.4.2.8.2.3 0 .7-.1 1.1-.4 1.9-1.3 7.7-9.8 6.4-13.6-.9-2.6-.9-2.6.4-3.3 2.6-1.4 3.9-3 3.8-4.8 0-.2-.4-.7-1-.6zm-30.6 11.4c-.7-.3-1.7-.6-2-.9-.8-.8-1.3-1.1-1.9-1.4-.4-.2-.8-.5-1.3-.9-.4-.3-1-.4-1.4-.2-.4.2-1.6.7-2.1 6.4 0 .5.4 1 .9 1.1.6.1 1-.4 1.1-.9.2-1.8.5-3.6.8-4.4.4.3.7.5 1 .6.5.3.9.5 1.5 1.1s1.6 1 2.6 1.4c.5.2 1.2.5 1.6.7l-.1.1c-1.4 1.3-1.8 1.6-2.6 3.2-.8 1.5-1.9 4.9-2 5-.2.5.1 1.1.6 1.3.1 0 .2.1.3.1.4 0 .8-.3.9-.7 0 0 1.1-3.3 1.8-4.8.6-1.2.8-1.4 2.1-2.6l.3-.3c.7-.6.7-1.2.6-1.6.2-1.2-1.1-1.8-2.7-2.3z"/></g><g fill="#555"><path d="M173.6 17.2l-1-3.4c.6 0 1.2.1 1.9.3.2.1.4 0 .5 0 .2-.1.4-.2.5-.4s.1-.4.1-.7c-.1-.4-.4-.5-.6-.6-1-.3-1.9-.4-2.8-.3l-.1-.3c-.1-.4-.6-.6-1-.5-.2.1-.4.2-.5.4-.1.2-.1.4-.1.6l.1.3c-1.9.8-2.8 2.4-2.4 4.1.5 1.7 1.8 2.3 4.3 2.2l1 3.5c-.9.1-1.7 0-2.7-.5-.2-.1-.4-.1-.6 0-.4.1-.7.6-.6 1 .1.3.3.5.6.6 1.3.5 2.5.6 3.7.4l.3.9c.1.3.4.5.7.5h.2c.4-.1.6-.6.5-1l-.3-.9c1.9-.8 2.9-2.4 2.4-4.1-.2-1.5-1.6-2.2-4.1-2.1zm-1.4.1c-1.5 0-1.9-.4-2.1-1.1-.2-.8.2-1.6 1.2-2l.9 3.1zm2.9 4.8l-.9-3.2c1.5 0 1.9.4 2.1 1.1.3.9-.2 1.7-1.2 2.1z"/><path d="M195 24.1c.1-.2.2-.5.1-.8l-6.4-21.6c-.1-.3-.2-.5-.5-.6h-.7l-35.8 10.6c-.3.1-.5.2-.6.5-.1.2-.2.5-.1.8l4.7 15.8 1.7 5.8c.1.4.5.7.9.7h.3l35.8-10.6c.3-.2.5-.3.6-.6zm-8.1.7l-22.1 6.5c-1.3-2.8-4.3-4.5-7.4-4l-2.4-8.2c1.4-.6 2.5-1.7 3.3-3 .7-1.4 1-2.9.8-4.4L181.6 5c.6 1.4 1.7 2.6 3 3.3.9.5 2 .8 3 .8.4 0 .9-.1 1.3-.2l2.4 8.1c-3.2 1.2-5 4.5-4.4 7.8zM188.2 7c-1 .2-1.9 0-2.8-.4-.9-.5-1.6-1.2-2-2.2l3.7-1.1 1.1 3.7zM157 12.2c.1 1-.1 2-.6 2.9-.5.9-1.2 1.6-2.1 2.1l-1.1-3.8 3.8-1.2zm.9 17c2-.2 4 .9 4.9 2.7L159 33l-1.1-3.8zm30.9-5c-.2-2.3.9-4.4 2.9-5.3l1.2 4.1-4.1 1.2zm-14 14.1c0 .4.3.8.8.8h.8c.7 2.5 2.5 4 4.8 4 1.6 0 2.8-.7 3.9-2.2.1-.2.2-.3.2-.5 0-.5-.4-.8-.8-.8-.3 0-.5.1-.7.3-.8 1-1.5 1.5-2.5 1.5-1.4 0-2.5-.9-3-2.4h3.5c.4 0 .8-.3.8-.8 0-.4-.3-.8-.8-.8H178v-1.3h3.7c.4 0 .8-.3.8-.8 0-.4-.4-.8-.8-.8h-3.4c.5-1.4 1.6-2.3 2.8-2.3 1.1 0 1.8.4 2.6 1.4.1.1.3.3.7.3.5 0 .8-.4.8-.8 0-.2-.1-.4-.2-.6-1.1-1.4-2.3-2-3.9-2-2.1 0-3.9 1.5-4.7 3.9h-.9c-.4 0-.8.3-.8.8 0 .4.3.8.8.8h.6v1.2h-.6c-.4.4-.7.7-.7 1.1z"/><path d="M199 24.6h-1.6c-.5 0-1 .4-1 1 0 .5.4 1 1 1h.6v4c-1.5-.2-2.9-1.3-3.5-2.9-.2-.5-.8-.7-1.3-.5-.5.2-.7.8-.5 1.3 1 2.3 3 3.8 5.3 4.1v8.5c-3 .3-5.5 2.8-5.9 6h-23.5c-.4-3.1-2.9-5.5-6-6v-4c0-.5-.4-1-1-1-.5 0-1 .4-1 1v11c0 .5.4 1 1 1H199c.5 0 1-.4 1-1V25.6c0-.5-.4-1-1-1zm-36.3 18.5c2 .4 3.6 2 4 4h-4v-4zm31.4 4c.4-2.1 1.9-3.7 3.9-4v4h-3.9z"/></g><g fill="#555"><path d="M244.2 7.6L237.4.8c-.5-.5-1.1-.8-1.8-.8h-27c-1.4 0-2.6 1.2-2.6 2.6v43.8c0 1.4 1.2 2.6 2.6 2.6h33.8c1.4 0 2.6-1.2 2.6-2.6v-37c0-.6-.3-1.3-.8-1.8zm-1.9.9h-5.8V2.8l5.8 5.7zm.1 38.6h-33.8c-.4 0-.6-.3-.6-.7V2.7c0-.4.3-.7.6-.7h26v7.4c0 .5.4 1 1 1h7.5v36c-.1.4-.3.7-.7.7z"/><path d="M237.8 40.2h-24.3c-.5 0-1 .4-1 1s.4 1 1 1h24.3c.5 0 1-.4 1-1s-.5-1-1-1zm0-6.8h-24.3c-.5 0-1 .4-1 1 0 .5.4 1 1 1h24.3c.5 0 1-.4 1-1s-.5-1-1-1zm-24.3-4.9h6.7c.5 0 1-.4 1-1 0-.5-.4-1-1-1h-6.7c-.5 0-1 .4-1 1 0 .5.4 1 1 1zm0-6.2h6.7c.5 0 1-.4 1-1 0-.5-.4-1-1-1h-6.7c-.5 0-1 .4-1 1s.4 1 1 1zm0-6.8h6.7c.5 0 1-.4 1-1 0-.5-.4-1-1-1h-6.7c-.5 0-1 .4-1 1 0 .5.4 1 1 1zm25.5-1.3v-.1s0-.1-.1-.1c0-.1-.1-.2-.2-.2 0 0-.1 0-.1-.1-.1 0-.1-.1-.2-.1h-12.9c-.1 0-.1.1-.2.1 0 0-.1 0-.1.1l-.2.2s0 .1-.1.1v.1c0 .1-.1.2-.1.3v13c0 .1 0 .2.1.3v.1s0 .1.1.1c0 .1.1.2.2.2l.1.1c.1 0 .1.1.2.1s.2.1.4.1H238c.1 0 .3 0 .4-.1.1 0 .1-.1.2-.1l.1-.1.2-.2s0-.1.1-.1v-.1c0-.1.1-.2.1-.3v-13c-.1-.1-.1-.2-.1-.3zm-7.1 5.4l-3.9-4.1h7.7l-3.8 4.1zm-1.4 1.4l-3.8 4v-8.1l3.8 4.1zm1.4 1.4l3.9 4.1H228l3.9-4.1zm1.3-1.4l3.8-4v8.1l-3.8-4.1z"/></g><path fill="#555" d="M298.4 13.7l-12-12c-.5-.5-1.1-.7-1.7-.6h-.3c-.5.1-.9.3-1.2.6L263 21.8c-.4.4-.6.8-.6 1.3-.1.7.1 1.4.6 1.9l12 12c.4.4 1 .7 1.6.7s1.2-.2 1.6-.7l20.2-20.1c.4-.4.7-1 .7-1.6s-.2-1.2-.7-1.6zm-15.3-9.1l-3.1 14-14 3.2 17.1-17.2zM297 15.5l-20.2 20.1c-.2.2-.3.2-.4 0L264.7 24l16.2-3.7c.4-.1.7-.4.7-.7l3.6-16.1L297 15.1c.1.1.1.2.1.2 0 .1 0 .2-.1.2zm-35.1 13c-.4-.4-1-.4-1.4 0l-10.2 10.1c-.4.4-.4 1 0 1.4.2.2.4.3.7.3.3 0 .5-.1.7-.3l10.2-10.1c.4-.4.4-1 0-1.4zm4.3 4.3c-.4-.4-1-.4-1.4 0l-6.8 6.8c-.4.4-.4 1 0 1.4.2.2.4.3.7.3s.5-.1.7-.3l6.8-6.8c.4-.4.4-1 0-1.4zm2.9 4.2l-3.4 3.4c-.4.4-.4 1 0 1.4.2.2.4.3.7.3.3 0 .5-.1.7-.3l3.4-3.4c.4-.4.4-1 0-1.4s-1-.4-1.4 0z"/><path fill="#E64F4F" d="M332 20.4l-1.7 1.3c-2.1 1.6-2.9 2.2-3.8 3.1-.1.1-.3.2-.5.2s-.4-.1-.5-.2c-.7-.7-1.3-1.1-2.5-2-.8-.6-1.7-1.3-3-2.3-3.4-2.7-8-6.3-8-11.6 0-5.1 3.9-7.8 7.5-7.8 2.5 0 4.8 1.2 6.5 3.3 1.7-2.1 4-3.3 6.5-3.3 3.6 0 7.5 2.7 7.5 7.8 0 5.4-5.2 9.4-8 11.5z"/></svg>